<?xml version="1.0" encoding="UTF-8"?>
<svg width="260px" height="259px" viewBox="0 0 260 259" version="1.1" xmlns="http://www.w3.org/2000/svg" xmlns:xlink="http://www.w3.org/1999/xlink">
    <!-- Generator: Sketch 52.5 (67469) - http://www.bohemiancoding.com/sketch -->
    <title>Group</title>
    <desc>Created with Sketch.</desc>
    <defs>
        <filter x="-4.7%" y="-4.7%" width="109.4%" height="109.4%" filterUnits="objectBoundingBox" id="filter-1">
            <feOffset dx="0" dy="2" in="SourceAlpha" result="shadowOffsetOuter1"></feOffset>
            <feGaussianBlur stdDeviation="2" in="shadowOffsetOuter1" result="shadowBlurOuter1"></feGaussianBlur>
            <feColorMatrix values="0 0 0 0 0   0 0 0 0 0   0 0 0 0 0  0 0 0 0.5 0" type="matrix" in="shadowBlurOuter1" result="shadowMatrixOuter1"></feColorMatrix>
            <feMerge>
                <feMergeNode in="shadowMatrixOuter1"></feMergeNode>
                <feMergeNode in="SourceGraphic"></feMergeNode>
            </feMerge>
        </filter>
        <linearGradient x1="50%" y1="0%" x2="50%" y2="97.5884885%" id="linearGradient-2">
            <stop stop-color="#FF943B" offset="0%"></stop>
            <stop stop-color="#FFBC30" offset="100%"></stop>
        </linearGradient>
        <linearGradient x1="50%" y1="0%" x2="50%" y2="139.662327%" id="linearGradient-3">
            <stop stop-color="#6CBE02" offset="0%"></stop>
            <stop stop-color="#11E6ED" offset="100%"></stop>
        </linearGradient>
        <linearGradient x1="96.1332522%" y1="62.9428583%" x2="0%" y2="4.48582837%" id="linearGradient-4">
            <stop stop-color="#1FC4B3" offset="0%"></stop>
            <stop stop-color="#44F6E4" offset="100%"></stop>
        </linearGradient>
    </defs>
    <g id="Page-1" stroke="none" stroke-width="1" fill="none" fill-rule="evenodd">
        <g id="Group" filter="url(#filter-1)" transform="translate(4.000000, 1.000000)">
            <path d="M250.142627,129.238033 L250.043259,129.226243 L249.960732,129.280138 C249.556522,129.613611 249.022627,129.654033 248.576311,129.894875 L248.487048,129.879717 L248.412943,129.930243 C248.161996,130.182875 247.776311,130.135717 247.501785,130.336138 L247.51189,130.324348 C247.122838,130.819506 246.46768,130.730243 245.984311,131.021611 C245.642417,131.34498 245.164101,131.407296 244.780101,131.651506 L244.711048,131.636348 L244.657153,131.683506 C243.985153,132.178664 243.200311,132.449822 242.450838,132.790033 C242.236943,133.002243 241.97589,133.120138 241.694627,133.202664 C241.578417,133.293611 241.460522,133.384559 241.342627,133.475506 C241.133785,133.665822 240.840732,133.702875 240.621785,133.871296 L240.234417,134.095296 C239.951469,134.275506 239.601153,134.319296 239.336732,134.538243 L239.355259,134.561822 C239.057153,134.797611 238.769153,135.048559 238.412101,135.196769 C238.088732,135.15298 237.938838,135.380348 237.78389,135.599296 C237.556522,136.043927 236.972101,135.947927 236.697574,136.321822 C236.522417,136.540769 236.241153,136.601401 236.022206,136.754664 C235.77968,137.064559 235.463048,137.281822 235.079048,137.403085 C235.003259,137.389611 234.954417,137.421611 234.934206,137.495717 C234.735469,137.728138 234.479469,137.889822 234.241996,138.073401 L234.255469,138.06498 C234.100522,138.317611 233.809153,138.369822 233.585153,138.518033 C233.044522,138.935717 232.621785,139.518454 231.978417,139.830033 C231.572522,139.744138 231.626417,140.200559 231.397364,140.321822 C231.151469,140.591296 230.821364,140.749611 230.543469,140.97698 L230.489574,140.948348 C230.201574,141.165611 229.957364,141.441822 229.615469,141.586664 C229.433574,141.64898 229.325785,141.756769 229.376311,141.965611 C229.244943,142.379927 228.751469,142.406875 228.545996,142.742033 L228.534206,142.752138 C228.005364,143.402243 227.419259,143.993401 226.745574,144.493611 C226.439048,144.921401 226.08368,145.307085 225.625574,145.588348 L225.63568,145.579927 C225.502627,145.891506 225.265153,146.100348 224.975469,146.260348 L224.980522,146.253611 C224.672311,146.681401 224.353996,147.099085 223.889153,147.373611 C223.515259,147.518454 223.429364,147.912559 223.195259,148.17698 C223.028522,148.550875 222.849996,148.918033 222.452522,149.106664 C222.334627,149.249822 222.216732,149.39298 222.098838,149.536138 C221.997785,149.856138 221.73168,150.036348 221.499259,150.24519 C221.430206,150.267085 221.404943,150.312559 221.425153,150.383296 C221.229785,150.979506 220.679048,151.30119 220.342206,151.789611 C220.140101,152.10119 219.995259,152.463296 219.641574,152.660348 L219.220522,153.278454 C219.129574,153.556348 218.944311,153.766875 218.725364,153.950454 C218.40368,154.063296 218.349785,154.332769 218.331259,154.624138 C218.026417,155.067085 217.814206,155.574033 217.423469,155.956348 L217.438627,155.944559 C216.865996,156.923085 216.242838,157.871296 215.666838,158.848138 L215.688732,158.819506 C215.292943,159.097401 215.390627,159.668348 215.016732,159.959717 L215.025153,159.94119 C214.892101,160.17698 214.817996,160.448138 214.597364,160.628348 C214.294206,161.027506 214.258838,161.563085 213.938838,161.95719 C213.644101,162.361401 213.628943,162.910454 213.261785,163.279296 L213.266838,163.267506 C213.054627,163.533611 213.061364,163.910875 212.818838,164.161822 L212.82389,164.151717 C212.616732,164.603085 212.522417,165.110033 212.173785,165.494033 C211.884101,166.410243 211.488311,167.28098 211.079048,168.14498 C211.035259,168.198875 211.026838,168.257822 211.050417,168.321822 C210.823048,168.847296 210.716943,169.421611 210.407048,169.913401 C210.356522,169.95719 210.346417,170.007717 210.380101,170.066664 C210.260522,170.395085 210.23189,170.755506 210.049996,171.063717 C209.829364,171.558875 209.441996,171.993401 209.50768,172.591296 C209.492522,172.747927 209.423469,172.882664 209.330838,173.007296 C209.313996,173.135296 209.297153,173.26498 209.280311,173.394664 C208.882838,174.017822 209.069785,174.826243 208.635259,175.437611 C208.583048,175.488138 208.576311,175.542033 208.616732,175.602664 C208.438206,175.894033 208.444943,176.26119 208.241153,176.542454 L207.932943,177.610243 C207.833574,178.199717 207.76789,178.792559 207.730838,179.390454 C207.698838,179.553822 207.636522,179.705401 207.559048,179.851927 C207.52368,179.917611 207.503469,179.98498 207.500101,180.059085 C207.212101,180.520559 207.368732,181.056138 207.259259,181.546243 C207.117785,182.235085 207.217153,182.966033 206.880311,183.617822 L206.836522,183.597611 C206.622627,184.32519 206.641153,185.074664 206.642838,185.820769 C206.646206,186.061611 206.610838,186.28898 206.460943,186.487717 C206.442417,187.055296 206.425574,187.622875 206.407048,188.190454 C206.119048,189.152138 206.533364,190.167717 206.174627,191.12098 L206.189785,191.105822 C205.997785,192.96519 206.139259,194.838033 205.984311,196.700769 C205.948943,197.131927 206.073574,197.590033 205.773785,197.977401 C205.761996,198.391717 205.750206,198.804348 205.738417,199.218664 C205.494206,201.472138 205.300522,203.734033 204.687469,205.928559 C204.630206,206.423717 204.234417,206.854875 204.412943,207.393822 C204.217574,207.924348 204.365785,208.542454 203.993574,209.027506 C203.941364,209.074664 203.934627,209.126875 203.973364,209.184138 C203.616311,209.894875 203.838627,210.782454 203.291259,211.434243 L203.306417,211.425822 C203.129574,211.791296 203.188522,212.239296 202.913996,212.572769 L202.863469,212.544138 C202.642838,212.776559 202.673153,213.07298 202.657996,213.357611 C202.590627,213.709611 202.48789,214.044769 202.260522,214.331085 C202.240311,214.452348 202.220101,214.573611 202.201574,214.694875 C202.113996,214.967717 201.991048,215.220348 201.817574,215.447717 L201.76368,215.424138 C201.541364,215.867085 201.364522,216.32519 201.327469,216.825401 C201.298838,216.980348 201.226417,217.10498 201.09168,217.192559 C200.751469,217.330664 200.960311,217.632138 200.896311,217.852769 C200.716101,218.135717 200.763259,218.531506 200.453364,218.750454 C200.188943,219.154664 199.804943,219.49319 199.777996,220.022033 C199.665153,220.271296 199.569153,220.52898 199.387259,220.739506 C199.323259,220.781611 199.306417,220.838875 199.336732,220.909611 C199.009996,221.608559 198.716943,222.326033 198.247048,222.94919 C198.193153,222.976138 198.183048,223.016559 198.218417,223.067085 C198.124101,223.469611 197.824311,223.740769 197.593574,224.057401 L197.576732,224.042243 C197.224732,224.643506 196.840732,225.226243 196.476943,225.820769 C196.434838,225.859506 196.426417,225.90498 196.45168,225.955506 C196.254627,226.290664 196.106417,226.659506 195.781364,226.905401 L195.791469,226.891927 C195.641574,227.264138 195.38389,227.552138 195.06389,227.787927 C194.937574,227.981611 194.809574,228.175296 194.681574,228.370664 C194.509785,228.778243 194.248732,229.115085 193.874838,229.359296 L193.642417,229.601822 C193.361153,229.824138 193.337574,230.199717 193.130417,230.465822 C193.071469,230.543296 193.002417,230.612348 192.923259,230.671296 L192.933364,230.66119 C192.650417,231.08898 192.318627,231.474664 191.909364,231.789611 C191.836943,231.833401 191.81168,231.895717 191.830206,231.978243 C191.61968,232.291506 191.471469,232.653611 191.121153,232.854033 L191.137996,232.83719 C190.969574,233.133611 190.74389,233.371085 190.439048,233.529401 C190.314417,233.694454 190.191469,233.86119 190.068522,234.027927 C189.740101,234.127296 189.644101,234.492769 189.361153,234.642664 C188.978838,234.989611 188.534206,235.277611 188.306838,235.767717 C188.124943,236.047296 187.870627,236.246033 187.585996,236.407717 C187.373785,236.606454 187.161574,236.80519 186.949364,237.002243 C186.543469,237.455296 186.162838,237.93698 185.569996,238.169401 C185.30389,238.413611 185.037785,238.659506 184.77168,238.903717 C184.404522,239.274243 184.049153,239.659927 183.602838,239.94119 C182.977996,240.249401 182.412101,240.643506 181.896732,241.111717 C181.694627,241.355927 181.453785,241.55298 181.182627,241.71298 L181.100101,241.709611 L181.024311,241.746664 C180.737996,241.967296 180.38768,242.110454 180.199048,242.445611 C179.97168,242.614033 179.678627,242.652769 179.457996,242.83298 C179.169996,243.083927 178.88368,243.346664 178.503048,243.47298 C178.125785,243.456138 177.957364,243.784559 177.697996,243.963085 C177.374627,244.267927 176.938417,244.374033 176.569574,244.596348 C176.135048,244.820348 175.702206,245.044348 175.26768,245.268348 C174.994838,245.448559 174.674838,245.556348 174.442417,245.798875 C174.149364,246.056559 173.79568,246.206454 173.440311,246.351296 L173.352732,246.339506 L173.278627,246.391717 C172.66389,246.686454 172.11989,247.144559 171.409153,247.227085 C171.222206,247.319717 171.035259,247.410664 170.848311,247.503296 C170.462627,247.850243 169.915259,247.848559 169.499259,248.13319 C169.287048,248.136559 169.076522,248.139927 168.864311,248.143296 C168.414627,248.468348 167.87568,248.61319 167.392311,248.867506 C167.12789,249.005611 166.85168,249.118454 166.570417,249.219506 C166.449153,249.239717 166.32789,249.259927 166.206627,249.280138 C165.889996,249.611927 165.425153,249.510875 165.049574,249.66919 C164.77168,249.758454 164.495469,249.846033 164.219259,249.935296 C163.936311,250.174454 163.535469,250.115506 163.240732,250.32098 C163.124522,250.331085 163.008311,250.34119 162.892101,250.35298 C162.122417,250.817822 161.194417,250.669611 160.38768,250.989611 C160.190627,251.004769 159.995259,251.021611 159.798206,251.038454 C159.25589,251.403927 158.588943,251.222033 158.012943,251.444348 L158.026417,251.435927 C157.689574,251.725611 157.233153,251.417401 156.884522,251.663296 C156.532522,251.676769 156.180522,251.691927 155.828522,251.707085 C155.185153,252.04898 154.439048,251.836769 153.778838,252.087717 C153.575048,252.102875 153.371259,252.116348 153.167469,252.131506 C152.143469,252.493611 151.067259,252.416138 150.017996,252.427927 C147.304732,252.456559 144.588101,252.532348 141.876522,252.320138 C141.11189,251.963085 140.300101,251.867085 139.466417,251.897401 C139.084101,251.900769 138.703469,251.902454 138.358206,251.702033 C138.011259,251.686875 137.662627,251.671717 137.31568,251.658243 C136.961996,251.420769 136.498838,251.734033 136.160311,251.425822 L136.178838,251.437611 C135.599469,251.222033 134.925785,251.410664 134.386838,251.02498 C134.268943,251.01319 134.149364,250.999717 134.031469,250.987927 C133.217996,250.67298 132.286627,250.824559 131.506838,250.364769 L131.532101,250.32098 C131.186838,250.093611 130.78768,250.145822 130.407048,250.095296 C130.024732,249.746664 129.465574,249.979085 129.064732,249.687717 C128.744732,249.436769 128.271469,249.568138 127.978417,249.25319 L127.900943,249.209401 L127.81168,249.226243 C127.210417,248.993822 126.533364,248.963506 126.004522,248.540769 L126.023048,248.555927 C125.714838,248.431296 125.361153,248.422875 125.105153,248.175296 C125.051259,248.134875 124.990627,248.111296 124.923259,248.104559 C124.687469,247.936138 124.406206,247.883927 124.136732,247.798033 C123.868943,247.693611 123.54389,247.727296 123.336732,247.47298 L123.281153,247.425822 L123.210417,247.447717 C122.989785,247.370243 122.821364,247.203506 122.609153,247.110875 C122.309364,246.977822 122.087048,246.686454 121.723259,246.69319 C121.44368,246.600559 121.142206,246.568559 120.909785,246.361401 C120.497153,246.09698 120.000311,245.979085 119.579259,245.706243 L118.447469,245.047717 C117.854627,244.715927 117.202838,244.481822 116.70768,243.990033 L116.645364,243.917611 L116.549364,243.92098 C116.288311,243.806454 116.010417,243.720559 115.823469,243.484769 L115.771259,243.44098 L115.708943,243.466243 C115.356943,243.286033 114.993153,243.124348 114.740522,242.799296 L114.753996,242.812769 C114.412101,242.652769 114.125785,242.415296 113.834417,242.182875 C113.595259,242.03298 113.354417,241.883085 113.113574,241.73319 C112.992311,241.600138 112.847469,241.485611 112.737996,241.339085 C112.532522,241.019085 112.242838,240.845611 111.858838,240.838875 C111.771259,240.768138 111.68368,240.699085 111.596101,240.628348 C111.358627,240.451506 111.149785,240.246033 110.961153,240.01698 C110.919048,239.951296 110.858417,239.927717 110.782627,239.949611 C110.444101,239.776138 110.142627,239.550454 109.856311,239.30119 C109.445364,238.922243 109.032732,238.54498 108.621785,238.166033 C108.077785,237.967296 107.826838,237.446875 107.429364,237.088138 C106.733785,236.614875 106.184732,235.990033 105.645785,235.353401 L105.628943,235.336559 C105.197785,235.035085 104.874417,234.62919 104.552732,234.219927 C104.27989,234.051506 104.062627,233.827506 103.889153,233.559717 C103.478206,233.224559 103.072311,232.889401 102.806206,232.419506 L102.817996,232.431296 C102.55189,232.299927 102.536732,231.979927 102.33968,231.796348 C102.08368,231.595927 101.807469,231.420769 101.706417,231.08898 L101.71989,231.102454 C101.052943,230.418664 100.485364,229.655717 99.9430481,228.872559 L99.9565218,228.887717 C99.6735745,228.778243 99.6718903,228.446454 99.4714692,228.27298 C99.2289429,227.897401 98.9881008,227.523506 98.7455745,227.147927 C98.5198903,226.930664 98.3110481,226.699927 98.1712587,226.413611 L98.0685218,226.044769 C97.8613639,225.815717 97.5784166,225.645611 97.5059955,225.313822 L97.4706271,224.950033 C97.2819955,224.754664 97.1253639,224.523927 96.8811534,224.382454 C96.662206,224.141611 96.6049429,223.806454 96.397785,223.558875 C96.4179955,223.49319 96.4028376,223.437611 96.3506271,223.390454 C95.8369429,222.817822 95.4849429,222.154243 95.2643113,221.418243 C95.0571534,221.23298 95.0234692,220.94498 94.829785,220.764769 C94.742206,220.535717 94.6546271,220.306664 94.5653639,220.075927 C94.1965218,219.393822 93.7215745,218.763927 93.5346271,217.990875 C93.5683113,217.93698 93.5565218,217.894875 93.4992587,217.866243 C93.1051534,217.406454 93.110206,216.786664 92.8592587,216.267927 C92.845785,216.06919 92.8323113,215.868769 92.8205218,215.668348 C92.5358903,215.324769 92.630206,214.811085 92.2866271,214.494454 C91.9868376,213.716348 92.1232587,212.840559 91.7527324,212.077611 C91.734206,211.872138 91.7173639,211.66498 91.6988376,211.457822 C91.3586271,210.930664 91.542206,210.278875 91.2946271,209.729822 C91.0386271,209.078033 91.158206,208.382454 91.0554692,207.713822 C90.7489429,207.307927 90.8752587,206.780769 90.6714692,206.346243 C90.6748376,206.273822 90.6546271,206.209822 90.6091534,206.154243 C90.1561008,205.239717 90.3986271,204.175296 89.9792587,203.252348 C89.965785,203.041822 89.9506271,202.829611 89.9371534,202.619085 C89.8327324,202.470875 89.7670481,202.30919 89.7586271,202.127296 C89.8327324,201.056138 89.4403113,200.067506 89.2196797,199.048559 C89.1438903,198.292348 89.0529429,197.539506 88.8878903,196.796769 C88.877785,196.601401 88.8676797,196.406033 88.8575745,196.210664 C88.7396797,196.064138 88.6655745,195.899085 88.653785,195.710454 C88.6874692,194.863296 88.5173639,194.034664 88.4264166,193.199296 C88.3961008,192.503717 88.5139955,191.791296 88.2293639,191.117611 L88.1670481,191.139506 C87.7695745,190.206454 88.0087324,189.187506 87.7746271,188.230875 L87.789785,188.246033 C87.3805218,187.548769 87.501785,186.763927 87.4428376,186.016138 C87.3569429,184.896138 87.2289429,183.779506 87.117785,182.66119 C87.1059955,182.315927 87.094206,181.970664 87.0841008,181.625401 C86.957785,181.465401 86.8904166,181.28519 86.8853639,181.081401 C86.9055745,178.807717 86.614206,176.552559 86.4643113,174.28898 C86.4407324,173.494033 86.4171534,172.697401 86.3918903,171.902454 C86.0045218,170.486033 86.3514692,169.022454 86.1089429,167.595927 C86.061785,167.314664 86.1527324,167.014875 86.0146271,166.740348 C86.0179955,163.986664 86.0281008,161.23298 86.0213639,158.477611 C86.0196797,157.950454 85.9708376,157.428348 86.6529429,157.273401 C87.1918903,156.832138 87.7779955,156.470033 88.429785,156.217401 C88.7430481,155.899085 89.2011534,155.82498 89.5565218,155.56898 L89.5447324,155.580769 C90.1645218,155.112559 90.8870481,154.827927 91.5641008,154.462454 C91.6348376,154.486033 91.6921008,154.467506 91.7358903,154.40519 C91.9565218,154.231717 92.2091534,154.122243 92.4685218,154.026243 C92.8878903,153.79719 93.3072587,153.568138 93.7249429,153.337401 C94.0331534,153.007296 94.4811534,152.919717 94.8449429,152.685611 C95.5135745,152.193822 96.3001008,151.92098 97.0546271,151.580769 L97.046206,151.584138 C97.3779955,151.260769 97.8243113,151.147927 98.2167324,150.934033 C98.2739955,150.962664 98.3228376,150.952559 98.3666271,150.907085 C98.6007324,150.615717 98.9763113,150.630875 99.2794692,150.487717 L99.2693639,150.499506 C99.597785,150.05319 100.188943,150.113822 100.594838,149.817401 L100.586417,149.822454 C100.946838,149.435085 101.470627,149.371085 101.916943,149.150454 L101.908522,149.153822 C102.127469,148.852348 102.546838,148.94498 102.797785,148.705822 L102.791048,148.70919 C103.188522,148.377401 103.720732,148.32519 104.145153,148.04898 C104.214206,148.077611 104.278206,148.067506 104.335469,148.01698 C104.754838,147.744138 105.214627,147.555506 105.681153,147.382033 C105.755259,147.398875 105.820943,147.385401 105.87989,147.338243 C106.081996,147.161401 106.33968,147.082243 106.565364,146.945822 L106.550206,146.954243 C106.765785,146.730243 107.072311,146.713401 107.340101,146.612348 C107.604522,146.523085 107.889153,146.484348 108.111469,146.292348 L108.086206,146.260348 C108.193996,146.157611 108.318627,146.08519 108.466838,146.061611 C108.965364,146.041401 109.356101,145.753401 109.777153,145.54119 C110.017996,145.394664 110.304311,145.342454 110.535048,145.172348 L110.526627,145.175717 C110.988101,144.827085 111.582627,144.78498 112.074417,144.502033 C112.145153,144.488559 112.21589,144.475085 112.288311,144.461611 C112.492101,144.288138 112.748101,144.207296 112.975469,144.075927 L112.958627,144.082664 C113.447048,143.730664 114.053364,143.670033 114.585574,143.424138 C114.634417,143.459506 114.683259,143.46119 114.733785,143.427506 C115.213785,143.102454 115.803259,143.043506 116.303469,142.767296 C116.781785,142.886875 117.009153,142.43719 117.371259,142.294033 C117.633996,142.014454 118.028101,142.056559 118.343048,141.901611 C118.61589,141.827506 118.929153,141.883085 119.154838,141.652348 L119.129574,141.603506 C119.446206,141.318875 119.909364,141.423296 120.246206,141.187506 L120.244522,141.187506 C120.690838,140.761401 121.308943,140.758033 121.839469,140.539085 C121.908522,140.574454 121.965785,140.56098 122.011259,140.498664 C122.452522,140.08098 123.099259,140.173611 123.585996,139.870454 C123.656732,139.900769 123.722417,139.890664 123.77968,139.838454 C124.09968,139.553822 124.554417,139.638033 124.901364,139.42919 L124.894627,139.435927 C125.377996,138.932348 126.110627,139.082243 126.666417,138.763927 L126.657996,138.767296 C126.988101,138.435506 127.457996,138.497822 127.850417,138.34119 C128.113153,138.251927 128.377574,138.162664 128.640311,138.075085 C128.906417,137.815717 129.319048,137.906664 129.595259,137.675927 C129.652522,137.709611 129.703048,137.702875 129.745153,137.650664 C130.092101,137.335717 130.556943,137.384559 130.962838,137.249822 C131.356943,137.160559 131.809996,137.278454 132.124943,136.914664 C132.423048,136.687296 132.80368,136.705822 133.132101,136.569401 C133.426838,136.288138 133.834417,136.431296 134.164522,136.289822 C134.388522,136.114664 134.669785,136.052348 134.908943,135.910875 C134.959469,135.951296 135.004943,135.946243 135.047048,135.897401 C135.673574,135.508348 136.446627,135.567296 137.093364,135.238875 C137.295469,135.215296 137.497574,135.190033 137.701364,135.166454 C138.684943,134.612348 139.808311,134.482664 140.859259,134.135717 C140.985574,134.122243 141.11189,134.108769 141.236522,134.095296 C141.800732,133.734875 142.504732,133.795506 143.082417,133.47719 C143.277785,133.455296 143.471469,133.433401 143.666838,133.411506 C144.825574,132.919717 146.044943,132.641822 147.265996,132.367296 C147.392311,132.355506 147.518627,132.342033 147.644943,132.330243 C147.968311,132.091085 148.34389,132.038875 148.729574,132.018664 C149.261785,131.956348 149.805785,131.954664 150.304311,131.715506 C150.375048,131.700348 150.442417,131.680138 150.508101,131.656559 C150.844943,131.380348 151.316522,131.510033 151.663469,131.270875 C151.732522,131.287717 151.791469,131.272559 151.84368,131.227085 C152.69589,130.822875 153.664311,130.910454 154.535048,130.592138 C154.600732,130.62919 154.661364,130.624138 154.716943,130.573611 C155.271048,130.177822 155.956522,130.359717 156.554417,130.157611 C156.923259,129.834243 157.406627,130.046454 157.810838,129.889822 C157.985996,129.741611 158.193153,129.697822 158.415469,129.699506 C158.892101,129.706243 159.365364,129.691085 159.815048,129.504138 L159.791469,129.453611 C160.576311,129.010664 161.534627,129.283506 162.319469,128.838875 L163.329996,128.783296 C163.872311,128.52898 164.466838,128.54919 165.039469,128.458243 C165.610417,128.190454 166.292522,128.416138 166.841574,128.054033 C167.370417,127.846875 167.951469,127.90919 168.485364,127.727296 C168.609996,127.720559 168.734627,127.712138 168.859259,127.705401 C169.662627,127.314664 170.558627,127.486454 171.390627,127.275927 C172.020522,127.18498 172.685785,127.434243 173.287048,127.078875 C173.357785,127.053611 173.428522,127.028348 173.499259,127.004769 C174.279048,126.617401 175.151469,126.841401 175.956522,126.619085 L175.941364,126.634243 C177.246627,126.110454 178.656311,126.315927 180.000311,126.056559 C180.209153,126.016138 180.436522,126.076769 180.636943,125.958875 C180.909785,125.945401 181.182627,125.931927 181.455469,125.918454 C182.457574,125.502454 183.547259,125.755085 184.572943,125.512559 L184.556101,125.527717 C185.130417,125.177401 185.799048,125.568138 186.383469,125.295296 C186.951048,125.276769 187.518627,125.256559 188.084522,125.238033 C189.034417,124.867506 190.07189,125.170664 191.030206,124.855717 C191.44789,124.843927 191.867259,124.832138 192.284943,124.820348 C193.489153,124.436348 194.740522,124.579506 195.968311,124.523927 C197.930417,124.431296 199.897574,124.422875 201.852943,124.190454 C206.817996,124.188769 211.784732,124.185401 216.749785,124.185401 C218.073574,124.185401 219.39568,124.188769 220.719469,124.192138 C223.291259,124.523927 225.884943,124.443085 228.465153,124.611506 C228.860943,124.638454 229.276943,124.545822 229.628943,124.815296 C230.191469,124.828769 230.752311,124.843927 231.314838,124.857401 C232.268101,125.231296 233.319048,124.843927 234.270627,125.238033 L235.76789,125.310454 C237.519469,125.487296 239.265996,125.707927 241.02768,125.73319 C241.21968,125.756769 241.396522,125.825822 241.561574,125.926875 C241.903469,125.938664 242.245364,125.950454 242.588943,125.960559 C243.917785,126.16098 245.256732,126.272138 246.597364,126.378243 C246.924101,126.403506 247.259259,126.378243 247.518627,126.634243 L247.505153,126.619085 C248.310206,126.859927 249.18768,126.646033 249.972522,127.011506 L249.948943,127.073822 C250.188101,127.220348 250.449153,127.28098 250.728732,127.267506 C251.020101,127.242243 251.289574,127.36519 251.574206,127.382033 C251.673574,127.395506 251.76789,127.420769 251.857153,127.462875 C252.436522,127.757611 252.214206,128.054033 251.868943,128.363927 C251.594417,128.611506 251.151469,128.522243 250.922417,128.850664 C250.706838,129.069611 250.381785,129.066243 250.142627,129.238033 L213.992557,231.404148" id="Fill-11" fill="url(#linearGradient-2)" transform="translate(169.114394, 188.325081) rotate(181.000000) translate(-169.114394, -188.325081) "></path>
            <path d="M26.6315259,165.709892 C26.4075259,165.558313 26.1852101,165.408419 25.9612101,165.25684 C25.6799469,165.019366 25.3481575,164.850945 25.0837364,164.591577 C25.0028943,164.519156 24.9220522,164.446735 24.8395259,164.374313 C24.6609996,164.177261 24.3595259,164.153682 24.2062627,163.921261 L24.2096311,163.926313 C23.936789,163.670313 23.6100522,163.48505 23.3153154,163.259366 C23.0357364,162.695156 22.4209996,162.53684 21.984789,162.162945 C21.7793154,161.938945 21.5014206,161.78905 21.3279469,161.531366 C20.7115259,161.029471 20.0226838,160.608419 19.5409996,159.953261 C19.3439469,159.722524 19.064368,159.574313 18.8976311,159.314945 C18.7477364,159.159998 18.5978417,159.003366 18.4479469,158.848419 C18.176789,158.688419 18.0252101,158.407156 17.792789,158.208419 C16.9102627,157.517892 16.3409996,156.542735 15.5628943,155.754524 C15.3624733,155.51705 15.1300522,155.311577 14.9195259,155.082524 C14.8555259,155.011787 14.7932101,154.939366 14.7292101,154.868629 C14.7174206,154.477892 14.400789,154.295998 14.1734206,154.051787 C13.824789,153.655998 13.4172101,153.30905 13.1713154,152.830735 C12.9809996,152.455156 12.4993154,152.269892 12.4858417,151.778103 C12.2668943,151.601261 12.2668943,151.287998 12.0631048,151.099366 L12.032789,151.119577 C11.8037364,150.826524 11.5831048,150.52505 11.392789,150.203366 C11.2412101,149.991156 11.0879469,149.778945 10.936368,149.566735 C10.7393154,149.241682 10.4849996,148.953682 10.3031048,148.618524 C10.2744733,148.492208 10.2475259,148.367577 10.2188943,148.241261 C9.76921009,147.779787 9.44584167,147.237471 9.19152588,146.649682 C9.11068378,146.444208 9.02984167,146.238735 8.94731536,146.033261 C8.78899957,145.817682 8.72163114,145.546524 8.53636799,145.347787 L8.51278904,145.367998 C8.30563114,144.803787 7.77510483,144.39284 7.74142062,143.746103 C7.69763114,143.449682 7.57131536,143.185261 7.42478904,142.927577 L7.37763114,142.947787 C7.1940522,142.755787 7.14521009,142.477892 6.96331536,142.282524 C6.73931536,142.110735 6.78310483,141.844629 6.7308943,141.612208 C6.46478904,141.374735 6.54731536,140.970524 6.30478904,140.722945 L6.30647325,140.726313 C5.95278904,140.180629 5.90057851,139.522103 5.64626272,138.939366 C5.6580522,138.868629 5.64794693,138.802945 5.61931536,138.738945 C5.34310483,138.511577 5.38857851,138.129261 5.19657851,137.861471 C5.06015746,137.492629 4.92542062,137.123787 4.79068378,136.754945 C4.74352588,136.374313 4.72499957,135.986945 4.55152588,135.633261 L4.52794693,135.646735 C4.11026272,135.045471 4.25678904,134.260629 3.87278904,133.647577 C3.86268378,133.50105 3.8508943,133.354524 3.84078904,133.207998 C3.29510483,131.847156 3.10142062,130.398735 2.7780522,128.983998 C2.76626272,128.773471 2.75615746,128.562945 2.74436799,128.352419 C2.21552588,127.296419 2.61468378,126.065261 2.11615746,125.004208 C2.09931536,124.497261 2.08247325,123.990313 2.06563114,123.483366 C1.72542062,122.79284 1.83321009,122.028208 1.81636799,121.317471 C1.74057851,118.242103 1.70352588,115.161682 1.90563114,112.087998 C1.91742062,111.90105 1.99657851,111.734313 2.07068378,111.565892 L2.11278904,110.262313 C2.5708943,109.194524 2.23068378,107.97684 2.74268378,106.919156 C2.75447325,106.706945 2.76457851,106.496419 2.77636799,106.284208 C3.09636799,104.941892 3.23447325,103.550735 3.82394693,102.277471 C3.84247325,102.065261 3.86099957,101.85305 3.87952588,101.64084 C4.2988943,101.03284 4.15236799,100.241261 4.53973641,99.6231556 C4.56499957,99.5675766 4.56836799,99.5103135 4.55152588,99.4513661 C4.72836799,99.2408398 4.76036799,98.9511556 4.9388943,98.7423135 C4.9540522,98.6008398 4.96752588,98.4576819 4.98099957,98.3162082 C5.2588943,97.7435766 5.35321009,97.1002082 5.65299957,96.5343135 L5.64626272,96.5444187 C5.98310483,96.074524 5.90394693,95.434524 6.29299957,94.986524 C6.32163114,94.9258924 6.32836799,94.8618924 6.3148943,94.7978924 C6.45131536,94.5637871 6.53215746,94.2976819 6.72078904,94.0922082 L6.76626272,94.1107345 C6.93636799,93.7250503 7.14015746,93.3528398 7.20078904,92.9250503 C7.22436799,92.778524 7.29678904,92.6572608 7.40121009,92.554524 C7.42984167,92.5023135 7.43826272,92.4467345 7.42647325,92.3877871 C7.71952588,92.0458924 7.73468378,91.5507345 8.06478904,91.2273661 C8.07994693,90.8147345 8.57342062,90.6126292 8.52963114,90.1747345 C8.74352588,89.9271556 8.7940522,89.5835766 9.02478904,89.3444187 C9.3700522,89.1759977 9.39868378,88.842524 9.44752588,88.5191556 C9.55194693,88.3002082 9.65299957,88.0778924 9.8500522,87.9195766 L9.84499957,87.9246292 C10.0049996,87.7107345 10.0622627,87.4328398 10.2694206,87.250945 C10.2997364,87.1987345 10.3098417,87.1431556 10.2997364,87.0858924 C10.520368,86.7776819 10.6753154,86.4239977 10.9397364,86.1461029 C11.0020522,85.8564187 11.1233154,85.6037871 11.384368,85.4387345 C11.7852101,84.7633661 12.3359469,84.1890503 12.7081575,83.4934714 C12.928789,83.1970503 13.1511048,82.9006292 13.3717364,82.6042082 C13.560368,82.4155766 13.5822627,82.1023135 13.8433154,81.9675766 L13.8348943,81.9759977 C14.0218417,81.7301029 14.1868943,81.4656819 14.4462627,81.2837871 C14.6079469,81.0732608 14.7696311,80.8627345 14.9313154,80.6522082 C15.3052101,80.074524 15.8441575,79.634945 16.2382627,79.0741029 C16.7553154,78.4863135 17.272368,77.898524 17.7911048,77.3107345 C18.0858417,77.162524 18.2306838,76.8559977 18.4816311,76.6606292 L18.4664733,76.6690503 C18.7157364,76.4703135 18.9633154,76.2698924 19.1165785,75.9802082 C19.2631048,75.8336819 19.4113154,75.6871556 19.5595259,75.5423135 C19.8593154,75.3890503 20.0395259,75.1010503 20.2938417,74.8955766 C20.640789,74.5890503 20.9860522,74.282524 21.3313154,73.9759977 C21.7338417,73.7301029 22.0268943,73.3461029 22.4344733,73.1086292 C22.6668943,72.8913661 22.7999469,72.562945 23.1418417,72.4618924 C23.4938417,72.1637871 23.8458417,71.8639977 24.1995259,71.5642082 C24.4976311,71.3418924 24.7974206,71.1212608 25.1022627,70.9090503 L25.0904733,70.9141029 C25.3801575,70.674945 25.7052101,70.482945 25.9965785,70.2454714 C26.208789,70.0955766 26.4193154,69.9439977 26.6315259,69.7941029 C26.9195259,69.4522082 27.392789,69.4050503 27.7161575,69.1204187 L27.7279469,69.1103135 C28.0277364,68.8896819 28.3241575,68.6656819 28.6441575,68.4753661 C28.9372101,68.2766292 29.2302627,68.0778924 29.5233154,67.8791556 C29.7338417,67.5439977 30.1498417,67.5844187 30.4311048,67.378945 C30.8285785,67.0892608 31.2176311,66.7894714 31.7144733,66.6850503 C31.896368,66.4812608 32.1776311,66.4324187 32.3797364,66.258945 L32.3780522,66.258945 C32.7165785,65.970945 33.1797364,65.8968398 33.5165785,65.6071556 C33.5822627,65.6155766 33.6445785,65.6054714 33.7035259,65.5768398 C34.1919469,65.3427345 34.584368,64.9233661 35.1418417,64.8239977 C35.4180522,64.754945 35.7026838,64.7044187 35.9384733,64.5258924 L35.9132101,64.4938924 C36.2298417,64.2176819 36.6795259,64.2682082 37.0180522,64.0475766 C37.184789,63.8218924 37.4609996,63.8791556 37.6816311,63.7932608 C37.9275259,63.538945 38.2929996,63.5557871 38.5809996,63.3957871 L38.5708943,63.4042082 C39.008789,62.9696819 39.6656311,63.0572608 40.152368,62.7372608 C40.2854206,62.7221029 40.4201575,62.7052608 40.5548943,62.6901029 C40.8546838,62.3515766 41.3228943,62.4762082 41.6765785,62.2858924 C41.9662627,62.1999977 42.2542627,62.1124187 42.5422627,62.026524 C42.8016311,61.7941029 43.1856311,61.8446292 43.4500522,61.6256819 C43.5191048,61.6391556 43.584789,61.6324187 43.648789,61.6071556 C44.3409996,61.1877871 45.184789,61.3124187 45.8972101,60.9688398 C46.0302627,60.9604187 46.1649996,60.9519977 46.2997364,60.9435766 C46.8268943,60.5006292 47.5157364,60.7482082 48.0934206,60.5208398 C48.6357364,60.1873661 49.2639469,60.3911556 49.8348943,60.2446292 C50.176789,59.9970503 50.6180522,60.0543135 50.9784733,59.8639977 C51.2614206,59.8538924 51.544368,59.8437871 51.8273154,59.8336819 C52.9220522,59.3772608 54.1009996,59.5861029 55.2311048,59.410945 C55.6555259,59.3452608 56.088368,59.3503135 56.4976311,59.1987345 C59.2715259,59.1987345 62.0471048,59.1987345 64.8226838,59.2004187 C66.3485785,59.6484187 67.9805785,59.3301029 69.4997364,59.8404187 C71.9300522,60.3978924 74.3620522,60.9587345 76.7957364,61.5111556 C77.0753154,61.5734714 77.3666838,61.5886292 77.6529996,61.6256819 C77.9746838,61.9119977 78.4698417,61.7351556 78.7831048,62.0450503 C79.0306838,62.2370503 79.296789,62.3650503 79.6218417,62.2959977 C79.9856311,62.4896819 80.448789,62.4071556 80.7721575,62.7136819 C80.8344733,62.7423135 80.9001575,62.7473661 80.9675259,62.730524 C81.8837364,63.0151556 82.8285785,63.2256819 83.6437364,63.7713661 C83.8508943,63.794945 84.056368,63.818524 84.2635259,63.8421029 C84.7064733,64.274945 85.3986838,64.0896819 85.8551048,64.4854714 C85.912368,64.5141029 85.9713154,64.5208398 86.0336311,64.5056819 C86.5422627,64.7701029 87.1738417,64.7397871 87.6184733,65.1608398 L87.6151048,65.1574714 C87.9519469,65.3831556 88.4117364,65.2837871 88.7266838,65.5734714 C88.7889996,65.6037871 88.8546838,65.6138924 88.9237364,65.6037871 C89.3919469,65.9524187 89.9898417,65.994524 90.4951048,66.2572608 C90.8268943,66.4812608 91.1182627,66.8012608 91.5831048,66.7052608 C92.0311048,66.9141029 92.5296311,67.0202082 92.9254206,67.3402082 C92.9860522,67.3755766 93.0500522,67.3856819 93.1191048,67.3722082 C93.6344733,67.6096819 94.2508943,67.602945 94.6938417,68.018945 C94.7494206,68.0526292 94.808368,68.0593661 94.8706838,68.042524 C95.1132101,68.1671556 95.3776311,68.2513661 95.5780522,68.4484187 C95.640368,68.4770503 95.7077364,68.4854714 95.776789,68.4753661 C96.2298417,68.682524 96.7351048,68.7818924 97.1241575,69.1221029 C97.184789,69.1524187 97.248789,69.1591556 97.3144733,69.1423135 C97.6058417,69.3242082 97.9376311,69.3983135 98.2559469,69.5077871 C98.560789,69.834524 98.9919469,69.9642082 99.3489996,70.2067345 C99.544368,70.2235766 99.7380522,70.2421029 99.9317364,70.258945 C100.285421,70.5351556 100.772157,70.5688398 101.102263,70.8888398 C101.157842,70.9242082 101.216789,70.9326292 101.279105,70.9157871 C101.521631,71.0387345 101.786052,71.1246292 101.986473,71.3216819 C102.18521,71.4261029 102.340157,71.6366292 102.606263,71.5776819 C102.842052,71.7006292 103.098052,71.786524 103.311947,71.9515766 C103.446684,71.9734714 103.579736,71.9953661 103.714473,72.0172608 C104.125421,72.3271556 104.655947,72.3911556 105.075315,72.6808398 L105.06521,72.6757871 C105.282473,72.8290503 105.555315,72.8913661 105.742263,73.0917871 C105.797842,73.1254714 105.856789,73.1372608 105.919105,73.1254714 C106.397421,73.2955766 106.869,73.4808398 107.285,73.7806292 L107.279947,73.7772608 C107.679105,74.0854714 108.26521,74.0298924 108.605421,74.4526292 L108.598684,74.4458924 C108.819315,74.5924187 109.083736,74.6614714 109.279105,74.8501029 C109.339736,74.8854714 109.405421,74.8972608 109.476157,74.8837871 C109.927526,75.0993661 110.449631,75.1717871 110.818473,75.5541029 L110.811736,75.5473661 C111.222684,75.8454714 111.81721,75.8067345 112.132157,76.2766292 C112.420157,76.4046292 112.708157,76.530945 112.996157,76.658945 C113.309421,76.8492608 113.669842,76.970524 113.917421,77.2635766 C114.466473,77.4067345 114.818473,77.9541029 115.418052,77.9877871 C115.662263,78.1056819 115.921631,78.1966292 116.128789,78.3835766 C116.186052,78.4172608 116.246684,78.4307345 116.312368,78.4256819 C116.652579,78.7136819 117.115736,78.7861029 117.454263,79.0791556 L117.44921,79.0774714 C117.696789,79.3216819 118.122894,79.2559977 118.321631,79.5827345 L118.535526,79.7461029 C118.837,79.8926292 119.192368,79.9330503 119.439947,80.1941029 L119.429842,80.1890503 C119.690894,80.4079977 120.078263,80.3844187 120.317421,80.6488398 L120.300579,80.6404187 C120.581842,80.8795766 120.930473,81.0210503 121.211736,81.2602082 C121.272368,81.2854714 121.338052,81.2972608 121.403736,81.2938924 C121.796157,81.458945 121.760789,81.8042082 121.760789,82.1343135 C121.757421,86.314524 121.794473,90.4964187 121.647947,94.674945 C121.639526,94.9376819 121.578894,95.1818924 121.469421,95.4176819 C121.452579,96.5124187 121.435736,97.6088398 121.418894,98.7035766 C120.989421,100.468629 121.194894,102.284208 120.994473,104.067787 C120.954052,104.434945 120.930473,104.798735 120.787315,105.143998 C120.77721,105.57684 120.767105,106.007998 120.757,106.44084 C120.433631,107.154945 120.719947,107.975156 120.371315,108.684208 C120.352789,109.263577 120.334263,109.842945 120.315736,110.420629 C120.039526,110.917471 120.403315,111.505261 120.091736,111.998735 L120.098473,111.988629 C119.825631,112.930103 120.086684,113.94905 119.677421,114.870313 C119.669,115.153261 119.660579,115.437892 119.652157,115.72084 C119.274894,117.03284 119.480368,118.435787 119.023947,119.734313 C119.010473,120.086313 118.997,120.438313 118.983526,120.790313 C118.678684,121.199577 118.904368,121.758735 118.592789,122.164629 C118.577631,122.521682 118.562473,122.878735 118.545631,123.234103 C118.299736,123.579366 118.607947,124.035787 118.319947,124.372629 L118.328368,124.36084 C118.104368,124.935156 118.286263,125.600419 117.922473,126.142735 C117.909,126.423998 117.895526,126.706945 117.882052,126.989892 C117.540157,128.005471 117.678263,129.123787 117.218473,130.115787 L117.22521,130.10905 C116.999526,130.679998 117.171315,131.341892 116.829421,131.887577 C116.814263,132.10484 116.800789,132.322103 116.787315,132.539366 C116.369631,133.455577 116.576789,134.513261 116.132157,135.424419 C116.125421,135.555787 116.118684,135.68884 116.111947,135.821892 C115.855947,136.162103 115.992368,136.63705 115.717842,136.970524 C115.709421,137.418524 115.355736,137.797471 115.455105,138.267366 C115.234473,138.846735 115.407947,139.513682 115.055947,140.064419 C115.040789,140.273261 115.025631,140.482103 115.010473,140.690945 C114.562473,141.37305 114.783105,142.245471 114.365421,142.935998 C114.358684,143.070735 114.351947,143.203787 114.343526,143.33684 C114.149842,143.618103 114.176789,143.993682 113.952789,144.263156 C113.912368,144.773471 113.546894,145.223156 113.679947,145.763787 C113.516579,146.137682 113.627736,146.607577 113.275736,146.915787 C113.247105,146.978103 113.233631,147.045471 113.233631,147.114524 C113.063526,147.631577 112.883315,148.146945 112.917,148.704419 C112.708157,149.445471 112.403315,150.154524 112.186052,150.892208 C112.174263,151.33684 111.813842,151.705682 111.91321,152.172208 C111.722894,152.537682 111.797,152.997471 111.500579,153.324208 C111.490473,153.455577 111.480368,153.588629 111.470263,153.721682 C111.118263,154.353261 111.268157,155.151577 110.805,155.747787 L110.813421,155.739366 C110.607947,156.086313 110.682052,156.532629 110.419315,156.859366 C110.400789,157.059787 110.380579,157.261892 110.362052,157.462313 C109.947736,157.91705 110.154894,158.615998 109.732157,159.067366 C109.706894,159.127998 109.690052,159.190313 109.683315,159.254313 C109.514894,159.469892 109.493,159.764629 109.297631,159.96505 C109.215105,160.323787 109.132579,160.68084 109.050052,161.039577 C108.864789,161.393261 108.977631,161.851366 108.664368,162.162945 L108.598684,162.78105 C108.167526,163.222313 108.389842,163.924629 107.965421,164.369261 C107.938473,164.433261 107.931736,164.500629 107.943526,164.569682 C107.722894,164.834103 107.778473,165.223156 107.534263,165.477471 C107.525842,165.549892 107.517421,165.623998 107.509,165.696419 C107.306894,166.292629 107.197421,166.924208 106.848789,167.466524 C106.816789,167.523787 106.811736,167.582735 106.830263,167.64505 C106.495105,168.12505 106.631526,168.798735 106.176789,169.229892 L106.180157,169.226524 C105.954473,169.56505 106.048789,170.021471 105.770894,170.339787 C105.681631,170.619366 105.594052,170.900629 105.504789,171.180208 C105.361631,171.486735 105.373421,171.860629 105.095526,172.106524 C105.061842,172.167156 105.053421,172.229471 105.066894,172.29684 C104.829421,172.813892 104.849631,173.438735 104.410052,173.871577 L104.413421,173.868208 C104.207947,174.213471 104.234894,174.647998 103.989,174.976419 C103.958684,175.038735 103.950263,175.104419 103.963736,175.171787 C103.578052,175.626524 103.658894,176.278313 103.303526,176.746524 L103.306894,176.739787 C103.067736,176.990735 103.146894,177.393261 102.882473,177.632419 C102.767947,177.827787 102.577631,177.991156 102.63321,178.255577 C102.432789,178.53684 102.466473,178.919156 102.237421,179.190313 L102.190263,179.168419 C101.949421,179.385682 102.008368,179.700629 101.934263,179.971787 C101.797842,180.295156 101.765842,180.660629 101.535105,180.943577 L101.538473,180.938524 C101.301,181.189471 101.380157,181.593682 101.112368,181.831156 C100.996157,182.023156 100.805842,182.186524 100.863105,182.449261 C100.741842,182.693471 100.645842,182.95284 100.474052,183.168419 L100.42521,183.149892 C100.189421,183.436208 100.239947,183.796629 100.175947,184.128419 C100.079947,184.41305 100.022684,184.719577 99.7548943,184.911577 L99.7633154,184.906524 C99.5628943,185.179366 99.5477364,185.538103 99.3405785,185.807577 C99.3136311,185.861471 99.3052101,185.920419 99.3153154,185.98105 C99.0222627,186.317892 98.9969996,186.801261 98.6938417,187.134735 C98.5658417,187.319998 98.3839469,187.483366 98.4294206,187.744419 C98.1902627,188.370945 97.9393154,188.992419 97.5822627,189.56505 C97.5485785,189.617261 97.536789,189.674524 97.5468943,189.735156 C97.2656311,190.162945 97.1999469,190.693471 96.8917364,191.109471 L96.896789,191.10105 C96.736789,191.313261 96.6795259,191.591156 96.472368,191.774735 C96.3578417,191.96505 96.1708943,192.126735 96.2197364,192.384419 C96.1052101,192.63705 96.0125785,192.903156 95.8054206,193.103577 L95.8020522,193.106945 C95.5595259,193.472419 95.6201575,193.962524 95.3102627,194.30105 C95.1165785,194.447577 94.9077364,194.582313 94.9060522,194.866945 C95.0037364,195.326735 94.3654206,195.469892 94.4529996,195.924629 C94.3317364,196.173892 94.2458417,196.443366 94.0336311,196.63705 L94.0319469,196.638735 C93.7961575,196.96884 93.8837364,197.438735 93.560368,197.730103 L93.5755259,197.714945 C93.2285785,197.922103 93.2049996,198.349892 92.9574206,198.626103 C92.9271048,198.690103 92.9153154,198.759156 92.920368,198.831577 C92.6374206,199.16505 92.5700522,199.621471 92.2820522,199.951577 C92.248368,200.005471 92.2365785,200.064419 92.2466838,200.128419 C91.9940522,200.490524 91.9216311,200.955366 91.584789,201.268629 L91.5898417,201.263577 C91.4382627,201.479156 91.3725785,201.746945 91.1839469,201.940629 C91.1654206,202.063577 91.1485785,202.186524 91.1300522,202.309471 C90.9565785,202.65305 90.6972101,202.939366 90.496789,203.266103 C90.1329996,203.862313 89.7692101,204.458524 89.4054206,205.054735 C89.1359469,205.282103 89.1729996,205.667787 88.9557364,205.920419 C88.5060522,206.71705 88.0580522,207.513682 87.608368,208.310313 C87.256368,208.835787 87.1637364,209.527998 86.5742627,209.895156 C86.5506838,210.026524 86.528789,210.156208 86.5052101,210.285892 C86.0993154,210.674945 86.0824733,211.331787 85.568789,211.646735 C85.2151048,212.224419 84.8614206,212.800419 84.5060522,213.376419 C84.3073154,213.898524 84.0311048,214.368419 83.6134206,214.745682 C83.4231048,214.826524 83.3961575,214.98484 83.4096311,215.16505 C83.1064733,215.806735 82.7056311,216.387787 82.2812101,216.953682 C81.6951048,217.391577 81.5586838,218.10905 81.1965785,218.686735 C80.8917364,219.255998 80.5498417,219.798313 80.120368,220.281682 C80.0917364,220.333892 80.0799469,220.389471 80.088368,220.448419 C79.8593154,220.763366 79.6942627,221.127156 79.3692101,221.366313 C79.2412101,221.57684 79.1115259,221.785682 78.9835259,221.994524 C78.8942627,222.321261 78.6231048,222.496419 78.3991048,222.711998 C78.3738417,222.836629 78.3485785,222.961261 78.3233154,223.085892 C78.1060522,223.319998 77.880368,223.545682 77.7102627,223.81684 C77.4711048,224.16884 77.2336311,224.52084 76.9961575,224.87284 C76.8681575,225.120419 76.7991048,225.403366 76.5498417,225.571787 L76.5582627,225.563366 C76.3561575,225.753682 76.3089996,226.048419 76.1052101,226.23705 L76.120368,226.223577 C75.7666838,226.427366 75.7380522,226.897261 75.3995259,227.114524 C75.3439469,227.183577 75.2900522,227.250945 75.2344733,227.319998 C75.0896311,227.550735 75.0289996,227.83705 74.7898417,228.007156 L74.7965785,228.000419 C74.5052101,228.246313 74.5254206,228.726313 74.1262627,228.889682 L74.1313154,228.884629 C73.9645785,229.100208 73.9359469,229.41684 73.6479469,229.543156 C73.0315259,230.317892 72.3628943,231.055577 71.9165785,231.951577 C71.7481575,232.222735 71.5393154,232.458524 71.3001575,232.66905 L71.2833154,232.689261 C71.064368,232.849261 71.0525785,233.164208 70.8218417,233.317471 L70.8252101,233.314103 C70.5860522,233.603787 70.4445785,233.970945 70.1161575,234.186524 C70.0538417,234.252208 69.9915259,234.319577 69.9292101,234.385261 C69.6782627,234.801261 69.4441575,235.22905 69.0365785,235.522103 C68.6609996,235.771366 68.6357364,236.244629 68.3713154,236.564629 C68.2146838,236.869471 67.9536311,237.074945 67.6993154,237.285471 C67.5578417,237.494313 67.416368,237.70484 67.2748943,237.915366 C66.9986838,238.36505 66.648368,238.745682 66.2289996,239.065682 C66.1852101,239.109471 66.1666838,239.161682 66.1717364,239.222313 C65.9999469,239.412629 65.7591048,239.663577 65.5468943,239.466524 C65.1477364,239.097682 65.2639469,238.624419 65.4879469,238.183156 L65.5384733,236.231156 C65.816368,235.655156 65.4458417,234.998313 65.7591048,234.427366 L65.752368,234.435787 C65.9376311,231.739366 66.0386838,229.041261 65.9241575,226.338103 C65.8500522,224.596629 65.8635259,222.848419 65.5401575,221.127156 C65.5249996,220.697682 65.5098417,220.268208 65.4946838,219.838735 C65.1073154,219.289682 65.4913154,218.573892 65.1005785,218.026524 C65.0921575,217.819366 65.0820522,217.612208 65.0736311,217.406735 C64.6340522,216.485471 64.9506838,215.397471 64.4369996,214.49305 C64.4201575,214.210103 64.4033154,213.927156 64.3881575,213.644208 C63.9873154,212.397892 63.6235259,211.141471 63.3271048,209.86484 C63.3439469,209.80084 63.3405785,209.73684 63.3153154,209.676208 C63.1772101,209.504419 63.1249996,209.302313 63.1031048,209.088419 C63.1199469,208.503998 62.872368,207.986945 62.688789,207.45305 L62.6348943,207.471577 C62.3031048,206.487998 61.9191048,205.522945 61.5654206,204.546103 C61.5485785,204.414735 61.5334206,204.281682 61.5165785,204.150313 C61.2100522,203.747787 61.0955259,203.255998 60.8900522,202.806313 C60.7401575,202.444208 60.5885785,202.082103 60.4369996,201.719998 C60.0597364,201.346103 60.0748943,200.785261 59.7885785,200.367577 C59.7666838,200.229471 59.7464733,200.089682 59.7245785,199.951577 C59.5612101,199.747787 59.5005785,199.486735 59.3422627,199.279577 L59.3456311,199.284629 C58.944789,198.92084 58.968368,198.351577 58.6871048,197.930524 C58.6972101,197.861471 58.6837364,197.799156 58.6449996,197.740208 C58.2492101,197.48084 58.3620522,196.92505 58.0100522,196.640419 C57.9965785,196.564629 57.9831048,196.490524 57.9696311,196.414735 C57.5351048,195.86905 57.208368,195.262735 56.9169996,194.63284 L56.9237364,194.637892 C56.5784733,194.341471 56.5414206,193.859787 56.2517364,193.529682 L56.2584733,193.534735 C56.0209996,193.369682 55.968789,193.083366 55.8121575,192.864419 L55.8188943,192.874524 C55.3708943,192.13684 54.944789,191.385682 54.4849996,190.654735 L54.4934206,190.659787 C54.2508943,190.516629 54.2306838,190.210103 54.0319469,190.033261 C53.5115259,189.287156 52.9911048,188.539366 52.4689996,187.793261 C52.2348943,187.373892 51.8525785,187.065682 51.6201575,186.644629 C51.4702627,186.439156 51.3186838,186.235366 51.168789,186.029892 C50.9026838,185.775577 50.7477364,185.435366 50.4984733,185.169261 C50.136368,184.965471 50.048789,184.549471 49.7961575,184.261471 C49.4121575,183.919577 49.0416311,183.567577 48.7300522,183.158313 C48.3376311,182.730524 48.1321575,182.146103 47.608368,181.831156 C47.4113154,181.59705 47.2597364,181.314103 46.9633154,181.177682 C46.5978417,180.805471 46.2306838,180.434945 45.8635259,180.062735 C45.4222627,179.469892 44.8698417,178.98484 44.320789,178.496419 L44.3292101,178.508208 C44.1557364,178.238735 43.8929996,178.063577 43.6471048,177.868208 C43.2041575,177.494313 42.7612101,177.122103 42.3182627,176.748208 C42.1094206,176.524208 41.8298417,176.372629 41.6580522,176.108208 C41.2302627,175.725892 40.8024733,175.345261 40.3746838,174.964629 C40.0361575,174.797892 39.7431048,174.562103 39.448368,174.331366 C39.2462627,174.17305 39.0424733,174.01305 38.840368,173.854735 C38.2508943,173.499366 37.792789,172.980629 37.2386838,172.581471 C36.9692101,172.416419 36.6980522,172.25305 36.4285785,172.087998 C36.2332101,171.902735 36.0024733,171.761261 35.7953154,171.591156 C35.6420522,171.353682 35.4584733,171.156629 35.160368,171.111156 C34.6449996,171.127998 34.4479469,170.688419 34.144789,170.403787 C34.0184733,170.375156 33.8921575,170.34484 33.7675259,170.316208 C33.4357364,170.117471 33.1174206,169.900208 32.8260522,169.645892 C32.608789,169.506103 32.3932101,169.366313 32.1759469,169.226524 C31.7431048,169.103577 31.3961575,168.837471 31.0542627,168.559577 L31.0626838,168.564629 C30.5473154,168.212629 29.8348943,168.155366 29.504789,167.527156 C28.9338417,167.52884 28.6609996,167.011787 28.2197364,166.787787 C27.8812101,166.614313 27.576368,166.391998 27.2984733,166.134313 L27.3001575,166.137682 C27.0946838,165.969261 26.8134206,165.91705 26.6315259,165.709892" id="Fill-13" fill="url(#linearGradient-3)" transform="translate(61.759242, 149.368525) rotate(181.000000) translate(-61.759242, -149.368525) "></path>
            <path d="M134.923491,98.6301819 C134.076333,98.0777609 133.483491,97.2423924 132.685175,96.6394451 C131.511281,95.5379714 130.33907,94.4381819 129.165175,93.3367082 C128.934439,93.1143924 128.685175,92.910603 128.516754,92.631024 L128.528544,92.6428135 C128.102439,92.3261819 127.674649,92.0095503 127.408544,91.5312345 L127.418649,91.5413398 C127.15086,91.3611293 126.928544,91.1337609 126.743281,90.8693398 L126.75507,90.8811293 C126.273386,90.6217609 125.978649,90.1703924 125.626649,89.7779714 L125.636754,89.7863924 C124.979912,89.2592345 124.380333,88.6731293 123.863281,88.0044977 L123.873386,88.0162872 C123.620754,87.8175503 123.467491,87.5143924 123.179491,87.3543924 C122.088123,86.1771293 120.996754,84.9981819 119.905386,83.8209188 C119.11886,82.8962872 118.103281,82.1821819 117.456544,81.1295503 C117.281386,80.9257609 117.106228,80.7236556 116.929386,80.5198661 C116.702018,80.3228135 116.486439,80.1122872 116.339912,79.8444977 L116.368544,79.8175503 C116.094018,79.6558661 115.896965,79.406603 115.671281,79.1893398 C115.521386,79.0444977 115.369807,78.8979714 115.219912,78.7514451 C114.935281,78.5021819 114.753386,78.1788135 114.57486,77.8537609 C114.199281,77.7004977 114.187491,77.2407082 113.887702,77.0167082 L113.87086,76.9964977 C113.496965,76.6360767 113.082649,76.3127082 112.809807,75.8579714 L112.818228,75.8663924 C112.572333,75.7316556 112.557175,75.4217609 112.353386,75.255024 C111.989597,75.1539714 111.905386,74.7783924 111.667912,74.5527082 C111.489386,74.2933398 111.283912,74.0575503 111.048123,73.8487082 L111.071702,73.8621819 C110.716333,73.5320767 110.438439,73.1396556 110.157175,72.7489188 C110.064544,72.6141819 109.971912,72.4794451 109.877597,72.3447082 C109.640123,72.1577609 109.432965,71.9438661 109.261175,71.6962872 C109.025386,71.278603 108.86707,70.8002872 108.382018,70.5779714 C108.092333,70.199024 107.765597,69.847024 107.512965,69.4394451 L107.524754,69.4512345 C107.256965,69.3282872 107.256965,68.9948135 107.038018,68.8348135 L107.026228,68.8196556 C106.782018,68.6175503 106.583281,68.3767082 106.404754,68.1173398 L106.416544,68.1291293 C106.15886,67.9792345 106.118439,67.6811293 105.95507,67.4672345 L105.961807,67.4739714 C105.51886,66.9383924 105.010228,66.4600767 104.646439,65.8604977 C104.658228,65.8015503 104.641386,65.7527082 104.595912,65.7139714 C104.208544,65.2272345 103.797597,64.7573398 103.497807,64.206603 L103.475912,64.183024 C103.255281,63.9775503 103.02286,63.7821819 102.852754,63.5278661 C102.792123,63.4436556 102.733175,63.3577609 102.674228,63.2735503 C102.667491,62.9164977 102.520965,62.6537609 102.17907,62.5156556 C102.012333,62.3455503 101.887702,62.1434451 101.751281,61.9514451 L101.752965,61.9548135 C101.527281,61.7998661 101.503702,61.5000767 101.304965,61.3282872 C101.229175,61.2440767 101.151702,61.1581819 101.075912,61.0739714 C100.638018,60.6091293 100.343281,60.0415503 99.9811755,59.5244977 C99.7588597,59.3543924 99.7184387,59.063024 99.5365439,58.8642872 C98.9538071,58.3758661 98.6085439,57.710603 98.2228597,57.079024 L98.2295965,57.0857609 C97.9887544,56.9207082 97.9314913,56.6360767 97.784965,56.4120767 L97.793386,56.4188135 C97.4902281,56.1628135 97.3420176,55.799024 97.1314913,55.4773398 C96.9765439,55.2802872 96.8215965,55.0832345 96.664965,54.8861819 C96.2978071,54.222603 95.7420176,53.6903924 95.3698071,53.0318661 C95.3917018,52.9813398 95.3815965,52.9358661 95.3428597,52.8971293 C95.0935965,52.6007082 94.8291755,52.3143924 94.7028597,51.9354451 C94.5462281,51.7400767 94.3895965,51.5447082 94.232965,51.351024 C93.9432808,51.0394451 93.9247544,50.5594451 93.569386,50.2882872 C93.4295965,50.0524977 93.2898071,49.8183924 93.1483334,49.582603 C92.8030702,49.2844977 92.7744387,48.7927082 92.4695965,48.4693398 L92.472965,48.4727082 C92.2439123,48.3160767 92.2186492,48.0162872 92.0232808,47.8360767 C91.9575965,47.7569188 91.8919123,47.6777609 91.8279123,47.598603 C91.5702281,47.3543924 91.5988597,46.9602872 91.3647544,46.7042872 C90.8931755,46.1956556 90.6068597,45.5657609 90.2548597,44.9779714 C90.1891755,44.8920767 90.1218071,44.8061819 90.0544387,44.7202872 C89.7277018,44.526603 89.8051755,44.1089188 89.5828597,43.8579714 L89.5744387,43.8461819 C89.2342281,43.630603 89.1230702,43.2583924 88.9462281,42.9299714 L88.9546492,42.9451293 C88.6784387,42.7278661 88.6750702,42.3607082 88.4881229,42.094603 C88.4190702,42.0137609 88.3483334,41.9329188 88.2792808,41.8503924 C87.873386,41.2053398 87.5634913,40.5047082 87.1643334,39.854603 C87.1424387,39.7821819 87.1205439,39.7097609 87.1003334,39.639024 C86.5226492,39.2499714 86.3912808,38.5813398 86.081386,38.0238661 C86.0982281,37.9615503 86.081386,37.9093398 86.0308597,37.870603 C85.752965,37.5404977 85.5626492,37.1632345 85.3908597,36.7724977 L85.3874913,36.7691293 C85.1786492,36.5838661 85.121386,36.3059714 84.9597018,36.0920767 L84.9630702,36.0971293 C84.609386,35.7956556 84.6161229,35.2903924 84.3163334,34.9602872 L84.3298071,34.9821819 C84.0401229,34.6268135 83.9087544,34.1804977 83.6578071,33.8049188 C83.6830702,33.7543924 83.6763334,33.710603 83.6375965,33.6718661 C83.3226492,33.4663924 83.3883334,33.0604977 83.1778071,32.7994451 C82.8746492,32.4659714 82.8157018,32.0011293 82.5260176,31.6693398 C82.5378071,31.5918661 82.5192808,31.5228135 82.4721229,31.4621819 C82.2110702,31.0478661 81.8759123,30.6807082 81.6990702,30.2158661 C81.6317018,29.8958661 81.6317018,29.5438661 81.272965,29.3720767 C80.9765439,29.0941819 81.0051755,28.6562872 80.7643334,28.3531293 L80.769386,28.3632345 C80.5302281,28.1072345 80.5251755,27.7367082 80.3298071,27.4604977 L80.3399123,27.4689188 C79.9003334,27.1371293 79.9660176,26.5442872 79.6561229,26.1468135 C79.3411755,25.8133398 79.2114913,25.3737609 79.0144387,24.9678661 C78.9942281,24.8499714 78.9723334,24.7303924 78.9521229,24.6108135 C78.7702281,24.4171293 78.7146492,24.1459714 78.5445439,23.9455503 C78.1571755,23.5834451 78.1841229,23.0175503 77.8910702,22.606603 L77.8978071,22.6133398 C77.5828597,22.199024 77.3925439,21.7240767 77.240965,21.2322872 C77.1011755,20.9543924 76.9630702,20.6781819 76.8232808,20.4019714 C76.5470702,20.0853398 76.5554913,19.6440767 76.3331755,19.3055503 C76.2439123,19.0849188 76.152965,18.8642872 76.0620176,18.6453398 C75.9003334,18.4364977 75.8211755,18.1838661 75.6881229,17.9598661 L75.6982281,17.966603 C75.2148597,17.5691293 75.2923334,16.9207082 75.009386,16.4322872 C74.625386,16.0583924 74.6304387,15.4975503 74.360965,15.0680767 C74.3357018,14.935024 74.3121229,14.8002872 74.2868597,14.6672345 C74.1302281,14.4567082 74.0544387,14.2040767 73.9180176,13.9834451 L73.9281229,13.9901819 C73.4514913,13.5792345 73.505386,12.9392345 73.249386,12.4322872 C73.2679123,12.3581819 73.2527544,12.2924977 73.2022281,12.2352345 C72.9597018,11.863024 72.7912808,11.4537609 72.6043334,11.0529188 C72.6295965,10.999024 72.6228597,10.9518661 72.5824387,10.9097609 C72.2792808,10.6840767 72.4291755,10.2411293 72.1495965,10.0053398 L72.1563334,10.0188135 C71.768965,9.48997139 71.7470702,8.82133981 71.480965,8.24533981 L71.4860176,8.25207665 C71.1357018,7.97923455 71.2923334,7.4908135 71.0295965,7.18260297 C70.9521229,6.95186613 70.8763334,6.72112929 70.7988597,6.49039244 C70.593386,6.27986613 70.5428597,5.98849771 70.3963334,5.7476556 C70.3794913,5.62639244 70.3626492,5.50512929 70.3458071,5.38555034 C69.9500176,4.92239244 70.0325439,4.2756556 69.7260176,3.77712929 L69.7277018,3.68618192 C69.9230702,3.41670823 70.1335965,3.4436556 70.3525439,3.65586613 C70.6119123,4.02807665 71.0784387,4.05839244 71.4152808,4.30091876 C72.1883334,4.8516556 72.9883334,5.3636556 73.6822281,6.0188135 C73.7175965,6.07270823 73.7681229,6.09123455 73.8304387,6.07439244 C74.200965,6.21249771 74.4990702,6.45670823 74.776965,6.73123455 L74.7702281,6.7228135 C74.9891755,6.87776087 75.2771755,6.9316556 75.4405439,7.16912929 L75.416965,7.18933981 C75.6258071,7.36449771 75.9104387,7.42007665 76.1058071,7.61544508 C76.5100176,7.75691876 76.6700176,8.29249771 77.1719123,8.2756556 C77.5441229,8.5148135 77.9550702,8.68997139 78.305386,8.96449771 L78.2818071,8.95102402 C78.5310702,9.15818192 78.8645439,9.2188135 79.1154913,9.42260297 C79.2485439,9.61628718 79.3731755,9.81839244 79.6460176,9.82849771 C79.7891755,9.89586613 79.9323334,9.96491876 80.0771755,10.0322872 C80.4847544,10.1788135 80.8586492,10.3859714 81.1954913,10.6604977 C81.2392808,10.711024 81.2948597,10.7278661 81.3588597,10.711024 C81.5963334,10.7868135 81.7765439,10.9535503 81.9786492,11.086603 C82.3037018,11.2903924 82.5630702,11.6272345 83.0060176,11.5868135 C83.1592808,11.6036556 83.2872808,11.6760767 83.4051755,11.7720767 C83.4641229,11.8057609 83.5264387,11.8175503 83.5938071,11.8057609 C83.9138071,12.119024 84.3988597,12.1324977 84.7306492,12.4255503 C84.7828597,12.4743924 84.8434913,12.4912345 84.9125439,12.471024 C85.2258071,12.622603 85.5895965,12.6293398 85.889386,12.8162872 C86.2885439,13.1042872 86.7365439,13.3097609 87.1677018,13.5438661 C87.3074913,13.5522872 87.4455965,13.5607082 87.5837018,13.5708135 C87.9963334,13.8554451 88.5437018,13.8554451 88.929386,14.1973398 C89.0557018,14.2141819 89.1820176,14.231024 89.3083334,14.2478661 C89.537386,14.4112345 89.8270702,14.4567082 90.0460176,14.6352345 L90.0258071,14.6891293 C90.3912808,14.8929188 90.7786492,15.0175503 91.2030702,15.0108135 C91.5432808,15.1354451 91.9474913,15.0697609 92.2405439,15.3459714 L92.2304387,15.3409188 C92.8704387,15.598603 93.5744387,15.6255503 94.2110702,15.895024 C94.5108597,16.2436556 95.0228597,16.1240767 95.3495965,16.4120767 L95.9575965,16.4659714 C96.6700176,16.814603 97.505386,16.7236556 98.2110702,17.0941819 C98.4098071,17.1042872 98.6068597,17.1127082 98.8039123,17.1228135 C99.7403334,17.5236556 100.830018,17.2440767 101.736123,17.783024 L101.729386,17.7729188 C102.455281,18.0019714 103.253597,17.8082872 103.955912,18.1602872 C104.173175,18.1855503 104.388754,18.2108135 104.604333,18.2343924 C105.382439,18.6167082 106.234649,18.2933398 107.031281,18.4903924 C111.829597,18.6958661 116.626228,18.7884977 121.417807,18.4314451 C122.229597,18.3489188 123.068333,18.5981819 123.85486,18.2293398 L123.838018,18.1737609 C124.621175,17.8234451 125.491912,18.0103924 126.293597,17.7729188 L126.28686,17.7847082 C127.270439,17.2929188 128.397175,17.4714451 129.409386,17.1127082 C129.544123,17.1009188 129.677175,17.0908135 129.811912,17.079024 C130.291912,16.7404977 130.896544,16.8887082 131.40686,16.6731293 L132.464544,16.4087082 C132.632965,16.2655503 132.833386,16.2183924 133.047281,16.2183924 C133.41107,16.1998661 133.773175,16.1813398 134.03086,15.8663924 C134.608544,15.6221819 135.245175,15.5817609 135.827912,15.3476556 C135.888544,15.3779714 135.945807,15.3712345 135.999702,15.3291293 C136.560544,15.0158661 137.171912,14.839024 137.786649,14.6739714 C137.85907,14.6891293 137.924754,14.679024 137.988754,14.6419714 C138.251491,14.4044977 138.633807,14.4415503 138.911702,14.2394451 C138.97907,14.263024 139.039702,14.2495503 139.093597,14.2040767 C139.496123,13.8621819 140.031702,13.8200767 140.481386,13.5859714 C140.607702,13.5657609 140.734018,13.5438661 140.860333,13.5236556 C141.559281,13.0756556 142.337386,12.7977609 143.091912,12.4727082 L143.078439,12.4811293 C143.475912,12.1072345 144.117597,12.2453398 144.488123,11.8141819 C144.604333,11.7922872 144.722228,11.7703924 144.838439,11.7468135 C145.043912,11.5800767 145.301597,11.5076556 145.51886,11.3644977 L145.512123,11.3729188 C145.855702,10.9501819 146.438439,11.0007082 146.842649,10.6992345 L146.835912,10.7042872 C147.053175,10.382603 147.448965,10.423024 147.745386,10.2596556 C147.881807,10.1754451 148.018228,10.0912345 148.152965,10.0053398 C148.343281,9.8116556 148.614439,9.74933981 148.828333,9.59270823 L148.819912,9.59607665 C149.193807,9.23733981 149.737807,9.21207665 150.14707,8.92407665 C150.483912,8.61755034 150.925175,8.49797139 151.317597,8.28407665 C151.373175,8.30260297 151.423702,8.29249771 151.467491,8.25207665 C151.667912,8.04323455 151.934018,7.94891876 152.191702,7.83944508 C152.254018,7.86470823 152.307912,7.85123455 152.351702,7.80070823 C152.68686,7.49249771 153.168544,7.45544508 153.51886,7.17586613 C153.577807,7.19607665 153.631702,7.18597139 153.67886,7.14555034 C154.441807,6.66555034 155.327702,6.45839244 156.127702,6.06260297 L156.115912,6.07102402 C156.609386,5.7308135 157.264544,5.79312929 157.74286,5.41586613 L158.098228,5.3636556 C158.261597,5.22049771 158.458649,5.16997139 158.67086,5.16660297 C159.177807,5.09755034 159.615702,4.84997139 160.062018,4.62428718 C160.403912,4.38344508 160.843491,4.47102402 161.203912,4.28912929 L161.195491,4.29418192 C161.50707,4.02302402 161.918018,4.07355034 162.278439,3.95733981 C162.824123,3.96070823 163.352965,3.88491876 163.851491,3.64912929 C163.989597,3.63060297 164.129386,3.61207665 164.267491,3.59355034 C164.676754,3.27186613 165.301597,3.49586613 165.658649,3.04449771 C166.600123,2.74807665 167.614018,2.8676556 168.548754,2.53586613 C168.821597,2.51902402 169.094439,2.50386613 169.368965,2.48702402 C170.827491,2.05249771 172.351702,2.10133981 173.83886,1.86723455 L178.207702,1.81333981 C178.647281,1.54218192 179.08686,1.61797139 179.526439,1.81333981 C180.759281,1.83355034 181.992123,1.85207665 183.224965,1.87228718 C183.81107,2.13839244 184.476333,1.76112929 185.054018,2.09628718 L185.03886,2.08449771 C185.912965,2.33039244 186.869597,2.03902402 187.708333,2.50049771 C187.913807,2.51060297 188.117597,2.52070823 188.32307,2.5308135 C189.424544,2.85586613 190.613597,2.71776087 191.688123,3.18260297 C191.743702,3.2196556 191.800965,3.22470823 191.859912,3.19439244 C192.201807,3.44702402 192.67507,3.3156556 193.011912,3.58512929 C193.214018,3.6036556 193.416123,3.62049771 193.618228,3.63902402 C194.253175,3.76870823 194.866228,3.95902402 195.443912,4.25544508 C195.573597,4.27060297 195.703281,4.28576087 195.832965,4.30091876 C196.816544,4.62597139 197.842228,4.82807665 198.758439,5.34512929 C198.884754,5.36533981 199.01107,5.38723455 199.137386,5.40912929 C199.654439,5.67355034 200.252333,5.73418192 200.744123,6.05755034 L200.73907,6.05418192 C201.234228,6.3236556 201.875912,6.26302402 202.283491,6.73291876 L202.276754,6.72449771 C202.632123,6.91818192 203.076754,6.8828135 203.400123,7.16239244 C203.435491,7.2028135 203.477597,7.20955034 203.524754,7.18597139 C203.905386,7.43523455 204.390439,7.48576087 204.722228,7.82428718 L204.717175,7.82091876 C204.924333,7.98597139 205.19886,8.04323455 205.387491,8.23691876 C205.434649,8.28744508 205.490228,8.30091876 205.554228,8.27902402 C205.933175,8.37333981 206.27507,8.54344508 206.57486,8.79270823 C206.790439,9.05376087 207.046439,9.24407665 207.401807,9.26091876 C207.731912,9.27776087 207.819491,9.60449771 208.040123,9.7628135 C208.307912,9.86049771 208.574018,9.95818192 208.840123,10.0558661 C209.224123,10.1720767 209.503702,10.4482872 209.80686,10.6857609 C209.843912,10.7295503 209.887702,10.7413398 209.939912,10.7194451 C210.520965,11.0377609 211.024544,11.4638661 211.553386,11.8529188 C211.610649,11.9169188 211.667912,11.9792345 211.725175,12.0415503 C211.930649,12.1409188 212.196754,12.1021819 212.353386,12.311024 C212.510018,12.5518661 212.698649,12.7472345 212.99507,12.8044977 C213.377386,13.006603 213.688965,13.2962872 213.995491,13.5943924 C214.199281,13.7392345 214.40307,13.8823924 214.608544,14.0272345 C215.08686,14.2242872 215.422018,14.5964977 215.753807,14.9703924 C215.922228,15.1607082 216.090649,15.3493398 216.25907,15.5396556 C216.912544,15.5127082 217.190439,16.0280767 217.542439,16.4339714 C217.816965,16.6007082 218.027491,16.8297609 218.21107,17.0874451 L218.216123,17.0924977 C218.600123,17.3889188 218.989175,17.678603 219.288965,18.0676556 C219.346228,18.1181819 219.401807,18.1687082 219.45907,18.2209188 C219.676333,18.4802872 220.085597,18.5543924 220.166439,18.9468135 C220.350018,19.4554451 220.856965,19.6457609 221.205597,19.9927082 C221.60307,20.2874451 221.896123,20.6781819 222.185807,21.070603 L222.187491,21.0739714 C222.450228,21.2575503 222.697807,21.454603 222.834228,21.7577609 L222.825807,21.7493398 C223.263702,21.9935503 223.501175,22.4078661 223.730228,22.8272345 C223.920544,23.063024 224.112544,23.3004977 224.30286,23.5362872 C224.717175,23.703024 224.868754,24.0802872 225.033807,24.4457609 C225.089386,24.5080767 225.143281,24.5703924 225.197175,24.6327082 C225.470018,24.7758661 225.488544,25.1143924 225.709175,25.2979714 C225.867491,25.5118661 226.024123,25.7240767 226.182439,25.9379714 C226.40307,26.2293398 226.622018,26.5240767 226.810649,26.8407082 C227.048123,27.0040767 227.117175,27.287024 227.24686,27.5312345 L227.411912,27.7316556 C227.733597,27.8343924 227.698228,28.2082872 227.910439,28.3952345 L227.902018,28.3834451 C228.279281,28.6596556 228.344965,29.1261819 228.57907,29.4916556 L228.570649,29.4832345 C228.917597,29.7813398 228.964754,30.2596556 229.239281,30.5998661 L229.229175,30.5914451 C229.76307,31.1657609 229.965175,31.927024 230.352544,32.5821819 C230.337386,32.6613398 230.355912,32.7287082 230.408123,32.7876556 C230.57486,32.9897609 230.63886,33.2524977 230.793807,33.4613398 L230.790439,33.4562872 C231.137386,33.7796556 231.176123,34.2714451 231.433807,34.6436556 C231.405175,34.6924977 231.411912,34.7379714 231.454018,34.7767082 C231.859912,35.1388135 231.762228,35.7468135 232.115912,36.1358661 C232.094018,36.2049188 232.105807,36.2672345 232.151281,36.3244977 C232.644754,37.079024 232.856965,37.9581819 233.220754,38.7716556 L233.214018,38.7598661 C233.50707,39.0916556 233.491912,39.5396556 233.651912,39.9219714 C233.747912,40.270603 233.845597,40.6175503 233.941597,40.9644977 C234.110018,41.1817609 234.209386,41.4343924 234.315491,41.6836556 C234.332333,41.8133398 234.349175,41.9413398 234.366018,42.0693398 C234.770228,42.6082872 234.719702,43.3004977 234.980754,43.8882872 C234.952123,43.9455503 234.955491,44.0028135 234.99086,44.0567082 C235.339491,44.535024 235.223281,45.1396556 235.422018,45.6600767 C235.300754,46.1299714 235.689807,46.4887082 235.701597,46.9316556 C235.960965,47.2752345 235.841386,47.7434451 236.083912,48.0920767 C236.094018,48.2200767 236.105807,48.3497609 236.115912,48.4777609 C236.587491,49.399024 236.351702,50.4701819 236.747491,51.4082872 C236.769386,51.831024 236.791281,52.2537609 236.813175,52.6764977 C237.210649,53.6802872 236.961386,54.7632345 237.197175,55.7872345 L237.185386,55.7771293 C237.688965,56.663024 237.345386,57.6348135 237.459912,58.5628135 C237.714228,60.6293398 237.377386,62.7009188 237.397597,64.7708135 C237.399281,64.9560767 237.301597,65.1194451 237.18707,65.2659714 L237.197175,65.2541819 C236.958018,66.2781819 237.217386,67.3644977 236.806439,68.3649188 C236.786228,68.7152345 236.766018,69.0655503 236.747491,69.4141819 C236.351702,70.350603 236.587491,71.4234451 236.115912,72.343024 C236.105807,72.4743924 236.095702,72.6057609 236.087281,72.7371293 C235.834649,73.0807082 235.962649,73.550603 235.701597,73.8908135 C235.676333,74.3303924 235.29907,74.6941819 235.423702,75.1657609 C235.238439,75.6103924 235.361386,76.1493398 235.006018,76.5417609 C234.995912,76.6680767 234.985807,76.7927082 234.975702,76.9173398 C234.699491,77.5051293 234.719702,78.1922872 234.359281,78.7514451 C234.342439,78.8777609 234.327281,79.0023924 234.312123,79.1287082 C234.152123,79.3594451 234.104965,79.6491293 233.92307,79.8680767 L233.865807,79.8461819 C233.688965,80.1948135 233.545807,80.5535503 233.557597,80.9560767 C233.530649,81.2087082 233.424544,81.4259714 233.269597,81.6247082 C233.249386,81.7459714 233.227491,81.8689188 233.205597,81.9918661 C232.976544,82.4516556 232.947912,83.0023924 232.563912,83.3914451 C232.351702,83.7316556 232.395491,84.1762872 232.127702,84.4979714 C232.083912,84.5367082 232.073807,84.5821819 232.09907,84.6343924 C231.789175,85.0604977 231.763912,85.6179714 231.43886,86.0373398 L231.448965,86.0238661 C231.159281,86.4348135 231.204754,87.0158661 230.776965,87.3577609 L230.785386,87.3493398 C230.648965,87.5783924 230.56307,87.8343924 230.399702,88.0482872 L230.347491,88.0247082 C230.103281,88.2335503 230.157175,88.5383924 230.089807,88.8061819 C230.005597,89.0924977 229.872544,89.3535503 229.682228,89.582603 C229.458228,90.0002872 229.232544,90.4179714 229.00686,90.8339714 C228.912544,91.1034451 228.80307,91.3628135 228.600965,91.5733398 C228.356754,92.0162872 228.333175,92.5771293 227.853175,92.8752345 C227.10707,93.7813398 226.394649,94.7194451 225.468333,95.4604977 C225.330228,95.7804977 224.981597,95.9135503 224.806439,96.1998661 L224.819912,96.183024 C224.124333,96.7438661 223.597175,97.4882872 222.83086,97.9682872 L222.835912,97.9615503 C222.522649,98.4011293 222.174018,98.8053398 221.687281,99.063024 C221.067491,99.2280767 220.777807,99.758603 220.414018,100.208287 C220.168123,100.400287 219.984544,100.66134 219.711702,100.823024 L219.72686,100.811235 C219.283912,101.249129 218.864544,101.71734 218.266649,101.956498 C218.027491,102.187235 217.790018,102.417971 217.55086,102.647024 C217.247702,102.77334 217.030439,102.980498 216.932754,103.300498 C216.769386,103.452077 216.584123,103.575024 216.395491,103.692919 L216.408965,103.681129 C216.269175,103.960708 215.967702,104.006182 215.733597,104.14934 C215.526439,104.317761 215.319281,104.484498 215.112123,104.652919 C214.680965,105.271024 214.089807,105.713971 213.478439,106.13334 C213.080965,106.065971 213.148333,106.532498 212.900754,106.636919 C212.651491,106.815445 212.46286,107.068077 212.200123,107.233129 L212.213597,107.219656 C212.077175,107.492498 211.774018,107.52955 211.556754,107.687866 L211.563491,107.679445 C211.026228,108.112287 210.593386,108.674813 209.970228,109.004919 C209.599702,108.935866 209.569386,109.313129 209.365597,109.464708 C208.917597,109.850392 208.521807,110.303445 207.964333,110.547656 C207.841386,110.641971 207.720123,110.737971 207.597175,110.833971 C207.300754,111.204498 206.916754,111.463866 206.497386,111.679445 C206.423281,111.750182 206.347491,111.820919 206.271702,111.89334 C205.997175,112.14934 205.687281,112.356498 205.365597,112.546813 L205.372333,112.538392 C205.240965,112.794392 204.914228,112.797761 204.752544,113.018392 L204.737386,113.031866 C204.531912,113.272708 204.296123,113.476498 204.028333,113.644919 L204.048544,113.633129 C203.501175,113.981761 203.007702,114.40955 202.453597,114.749761 C202.249807,114.914813 202.047702,115.08155 201.843912,115.248287 C201.515491,115.408287 201.293175,115.719866 200.958018,115.871445 L200.96307,115.868077 C200.70707,116.151024 200.336544,116.273971 200.055281,116.519866 L200.065386,116.509761 C199.902018,116.769129 199.617386,116.839866 199.36307,116.961129 C199.014439,117.20534 198.665807,117.44955 198.315491,117.693761 C198.128544,117.94134 197.865807,118.10134 197.626649,118.291656 L197.638439,118.28155 C197.10286,118.653761 196.589175,119.057971 196.023281,119.384708 L195.947491,119.377971 L195.885175,119.421761 C195.612333,119.681129 195.250228,119.815866 194.968965,120.063445 C194.89486,120.056708 194.832544,120.078603 194.780333,120.130813 C194.509175,120.541761 194.081386,120.740498 193.663702,120.952708 L193.670439,120.944287 C193.281386,121.247445 192.946228,121.623024 192.474649,121.811656 L192.405597,121.804919 L192.350018,121.84534 C192.176544,122.064287 191.88686,122.108077 191.684754,122.284919 C191.403491,122.551024 191.056544,122.722813 190.728123,122.92155 C190.669175,122.906392 190.620333,122.92155 190.581597,122.968708 C190.28686,123.194392 189.992123,123.420077 189.665386,123.600287 C189.264544,123.500919 189.264544,123.940498 189.035491,124.070182 C188.717175,124.368287 188.243912,124.40534 187.937386,124.720287 C187.74707,124.930813 187.47086,124.994813 187.251912,125.148077 L187.258649,125.14134 C186.965597,125.489971 186.559702,125.651656 186.155491,125.816708 C185.564333,126.180498 185.011912,126.616708 184.375281,126.913129 L184.382018,126.904708 C183.792544,127.297129 183.236754,127.743445 182.569807,128.00955 C182.224544,128.250392 181.720965,128.250392 181.522228,128.708498 C181.170228,128.988077 180.73907,129.122813 180.350018,129.33334 C180.287702,129.316498 180.235491,129.33334 180.19507,129.383866 C179.866649,129.661761 179.487702,129.852077 179.098649,130.02555 C178.803912,130.252919 178.509175,130.256287 178.207702,130.052498 C177.982018,129.968287 177.756333,129.884077 177.530649,129.799866 C177.343702,129.612919 177.057386,129.575866 176.882228,129.370392 L176.811491,129.324919 L176.728965,129.33334 C176.013175,129.025129 175.346228,128.625971 174.669175,128.243656 C174.586649,128.172919 174.504123,128.102182 174.421597,128.031445 C173.527281,127.549761 172.646439,127.042813 171.799281,126.481971 C171.725175,126.40955 171.65107,126.337129 171.576965,126.263024 C171.334439,126.017129 170.930228,126.067656 170.706228,125.786392 L170.72307,125.796498 C170.387912,125.628077 169.99886,125.532077 169.813597,125.151445 L169.816965,125.154813 C169.523912,124.988077 169.158439,124.962813 168.920965,124.691656 C168.851912,124.625971 168.78286,124.560287 168.713807,124.496287 C168.506649,124.32955 168.232123,124.270603 168.041807,124.075235 C167.472544,123.692919 166.904965,123.308919 166.335702,122.926603 C165.971912,122.66555 165.517175,122.56955 165.168544,122.279866 C164.976544,122.124919 164.786228,121.968287 164.595912,121.81334 C164.297807,121.757761 164.102439,121.553971 163.910439,121.345129 C163.789175,121.079024 163.607281,120.887024 163.302439,120.846603 C162.793807,120.861761 162.603491,120.420498 162.295281,120.147656 C162.226228,120.122392 162.157175,120.097129 162.088123,120.070182 C161.786649,119.866392 161.394228,119.787235 161.192123,119.441971 C161.160123,119.389761 161.112965,119.371235 161.054018,119.384708 C160.48307,119.069761 160.001386,118.621761 159.423702,118.318603 C159.21486,118.163656 159.006018,118.007024 158.797175,117.852077 C158.463702,117.666813 158.148754,117.457971 157.875912,117.186813 C157.796754,117.117761 157.715912,117.050392 157.636754,116.983024 C157.458228,116.785971 157.141597,116.770813 157.010228,116.511445 L157.022018,116.52155 C156.752544,116.257129 156.309597,116.243656 156.109175,115.88155 C155.826228,115.814182 155.588754,115.679445 155.422018,115.435235 C155.144123,115.199445 154.842649,114.988919 154.57486,114.739656 L154.59507,114.749761 C154.072965,114.37755 153.559281,113.991866 153.028754,113.634813 L153.048965,113.644919 C152.781175,113.476498 152.543702,113.272708 152.339912,113.030182 L152.324754,113.016708 C152.159702,112.801129 151.84307,112.78934 151.696544,112.548498 L151.703281,112.55355 C151.39507,112.353129 151.090228,112.147656 150.805597,111.915235 C150.770228,111.869761 150.724754,111.854603 150.67086,111.869761 C150.150439,111.66934 149.855702,111.206182 149.478439,110.840708 C149.330228,110.751445 149.180333,110.662182 149.030439,110.574603 C148.848544,110.379235 148.513386,110.375866 148.408965,110.082813 L148.422439,110.096287 C148.136123,109.948077 147.955912,109.678603 147.711702,109.483235 C147.506228,109.324919 147.300754,109.166603 147.095281,109.008287 C146.445175,108.718603 146.089807,108.070182 145.500333,107.704708 C145.306649,107.514392 144.998439,107.487445 144.851912,107.236498 L144.862018,107.244919 C144.624544,107.04955 144.360123,106.887866 144.17486,106.635235 C143.979491,106.465129 143.782439,106.296708 143.58707,106.128287 C142.962228,105.806603 142.504123,105.274392 141.96686,104.844919 C141.734439,104.619235 141.502018,104.391866 141.269597,104.166182 C141.101175,103.962392 140.781175,103.953971 140.661597,103.68955 L140.673386,103.70134 C140.484754,103.563235 140.286018,103.440287 140.09907,103.300498 C139.95086,103.041129 139.774018,102.807024 139.528123,102.63355 C139.112123,102.552708 138.906649,102.190603 138.605175,101.954813 C138.182439,101.580919 137.758018,101.20534 137.338649,100.826392 L137.348754,100.834813 C137.106228,100.64955 136.91086,100.410392 136.661597,100.230182 C136.49486,100.068498 136.326439,99.9068135 136.159702,99.7451293 C135.945807,99.5581819 135.745386,99.3577609 135.556754,99.1472345 C135.346228,98.9754451 135.134018,98.8019714 134.923491,98.6301819 Z" id="Fill-15" fill="url(#linearGradient-4)" transform="translate(153.640672, 65.919081) rotate(181.000000) translate(-153.640672, -65.919081) "></path>
        </g>
    </g>
</svg>